<?xml version="1.0" encoding="utf-8"?>
<!-- Generator: Adobe Illustrator 16.0.0, SVG Export Plug-In . SVG Version: 6.00 Build 0)  -->
<!DOCTYPE svg PUBLIC "-//W3C//DTD SVG 1.1//EN" "http://www.w3.org/Graphics/SVG/1.1/DTD/svg11.dtd">
<svg version="1.1" id="Layer_1" xmlns="http://www.w3.org/2000/svg" xmlns:xlink="http://www.w3.org/1999/xlink" x="0px" y="0px"
	 width="960px" height="560px" viewBox="0 0 960 560" enable-background="new 0 0 960 560" xml:space="preserve">
<g>
	
		<text transform="matrix(1.5 0 0 1.5 218.21 553.627)" stroke="#000000" stroke-miterlimit="10" font-family="'Century'" font-size="500">T</text>
</g>
<g>
	<line fill="none" x1="474.083" y1="207.582" x2="173.583" y2="508.082"/>
</g>
<g>
	<path d="M470.358,387.682c-27.83,34.283-54.83,70.283-82.83,104.779"/>
	<path d="M470.358,387.682c0,0-0.267,2.455-1.213,6.369c-0.46,1.966-1.103,4.289-1.919,6.891c-0.818,2.599-1.836,5.456-3.039,8.501
		c-2.405,6.086-5.659,12.833-9.639,19.666c-3.965,6.846-8.715,13.735-13.871,20.303c-5.192,6.558-10.802,12.786-16.544,18.23
		c-5.725,5.46-11.537,10.176-16.896,13.907c-2.683,1.863-5.223,3.504-7.558,4.888c-2.339,1.382-4.446,2.531-6.25,3.421
		c-3.582,1.8-5.901,2.604-5.901,2.604s0.268-2.469,1.217-6.399c0.46-1.976,1.104-4.306,1.919-6.915
		c0.819-2.605,1.839-5.467,3.04-8.517c2.406-6.091,5.654-12.836,9.636-19.655c3.964-6.833,8.708-13.704,13.869-20.243
		c5.198-6.531,10.802-12.739,16.544-18.171c5.725-5.447,11.532-10.16,16.893-13.896c2.68-1.866,5.221-3.512,7.557-4.904
		c2.339-1.389,4.447-2.545,6.251-3.442C468.037,388.501,470.358,387.682,470.358,387.682z"/>
</g>
<g>
	<path fill="#FFFFFF" d="M553.319,289.806c-27.656,33.583-53.788,68.385-80.919,102.389"/>
	<path d="M553.319,289.806c0,0-0.246,2.416-1.155,6.26c-0.44,1.934-1.061,4.213-1.851,6.767c-0.791,2.55-1.78,5.354-2.948,8.334
		c-2.338,5.968-5.512,12.57-9.405,19.25c-3.879,6.691-8.536,13.41-13.597,19.808c-5.034,6.411-10.484,12.491-16.081,17.801
		c-5.578,5.325-11.259,9.919-16.509,13.551c-2.627,1.813-5.118,3.411-7.413,4.759c-2.298,1.344-4.37,2.462-6.146,3.328
		c-3.523,1.752-5.814,2.532-5.814,2.532s0.226-2.428,1.104-6.293c0.426-1.942,1.028-4.235,1.797-6.803
		c0.772-2.563,1.741-5.379,2.889-8.379c2.298-5.995,5.427-12.635,9.285-19.347c3.839-6.727,8.455-13.484,13.484-19.911
		c5.104-6.362,10.612-12.399,16.264-17.671c5.634-5.282,11.355-9.845,16.641-13.448c2.64-1.802,5.146-3.387,7.453-4.724
		c2.306-1.336,4.389-2.444,6.17-3.304C551.023,290.579,553.319,289.806,553.319,289.806z"/>
</g>
<g>
	<circle cx="468" cy="375.918" r="75"/>
	<g>
		<path fill="none" stroke="#000000" stroke-miterlimit="10" d="M458.957,301.457C421.799,305.924,393,337.556,393,375.918
			c0,41.422,33.579,75,75,75s75-33.578,75-75c0-38.359-28.798-69.993-65.953-74.459"/>
		<g>
			<path d="M468,300.918c-4.364-1.266-9.832-3.571-13.307-6.183l3.093,6.929l-2.054,7.301
				C458.792,305.878,463.866,302.803,468,300.918z"/>
		</g>
		<g>
			<path d="M468,300.918c4.364-1.266,9.832-3.571,13.307-6.183l-3.093,6.929l2.054,7.301
				C477.208,305.878,472.134,302.803,468,300.918z"/>
		</g>
	</g>
</g>
<g>
	<ellipse cx="469.5" cy="372.75" rx="27.75" ry="28.125"/>
	<ellipse fill="none" stroke="#000000" stroke-miterlimit="10" cx="469.5" cy="372.75" rx="27.75" ry="28.125"/>
</g>
<g>
	<ellipse cx="468.75" cy="373" rx="1.125" ry="0"/>
	<ellipse fill="none" stroke="#000000" stroke-miterlimit="10" cx="468.75" cy="372.5" rx="1.125" ry="0"/>
</g>
<g>
	<path fill="#FFFFFF" d="M469.15,323.91c-29.115,0-52.725,22.95-52.725,51.27s23.61,51.271,52.725,51.271
		c29.131,0,52.724-22.951,52.724-51.271S498.281,323.91,469.15,323.91z"/>
	<path fill="none" stroke="#FFFFFF" stroke-width="8" stroke-miterlimit="10" d="M469.15,323.91
		c-29.115,0-52.725,22.95-52.725,51.27s23.61,51.271,52.725,51.271c29.131,0,52.724-22.951,52.724-51.271
		S498.281,323.91,469.15,323.91z"/>
</g>
</svg>
