<?xml version="1.0" encoding="utf-8"?>
<!-- Generator: Adobe Illustrator 16.0.0, SVG Export Plug-In . SVG Version: 6.00 Build 0)  -->
<!DOCTYPE svg PUBLIC "-//W3C//DTD SVG 1.1//EN" "http://www.w3.org/Graphics/SVG/1.1/DTD/svg11.dtd">
<svg version="1.1" id="Layer_1" xmlns="http://www.w3.org/2000/svg" xmlns:xlink="http://www.w3.org/1999/xlink" x="0px" y="0px"
	 width="960px" height="560px" viewBox="0 0 960 560" enable-background="new 0 0 960 560" xml:space="preserve">
<g>
	
		<text transform="matrix(1.4784 0 0 1.4784 224.8125 547.2979)" fill="#FFFFFF" stroke="#FFFFFF" stroke-miterlimit="10" font-family="'Century'" font-size="500">T</text>
</g>
<g>
	<line fill="none" x1="474.919" y1="215.746" x2="178.747" y2="511.917"/>
</g>
<g>
	<path d="M472.763,394.436c-27.43,33.79-54.041,69.271-81.638,103.271"/>
	<path fill="#FFFFFF" d="M472.763,394.436c0,0-0.263,2.419-1.197,6.277c-0.453,1.938-1.087,4.227-1.891,6.792
		c-0.806,2.562-1.81,5.377-2.996,8.378c-2.37,5.999-5.576,12.647-9.5,19.383c-3.907,6.748-8.588,13.538-13.669,20.011
		c-5.117,6.464-10.646,12.603-16.307,17.97c-5.643,5.381-11.37,10.027-16.652,13.704c-2.644,1.837-5.147,3.454-7.449,4.819
		c-2.307,1.361-4.383,2.493-6.161,3.37c-3.53,1.774-5.816,2.567-5.816,2.567s0.266-2.435,1.201-6.308
		c0.453-1.948,1.088-4.243,1.892-6.816c0.807-2.566,1.812-5.389,2.995-8.393c2.371-6.004,5.573-12.653,9.497-19.374
		c3.906-6.734,8.583-13.506,13.669-19.95c5.125-6.438,10.647-12.557,16.307-17.91c5.643-5.368,11.366-10.014,16.65-13.695
		c2.64-1.841,5.146-3.462,7.448-4.833c2.305-1.369,4.382-2.51,6.161-3.395C470.474,395.242,472.763,394.436,472.763,394.436z"/>
</g>
<g>
	<path fill="#FFFFFF" d="M555.737,296.542c-27.259,33.101-53.013,67.4-79.754,100.916"/>
	<path fill="#FFFFFF" d="M555.737,296.542c0,0-0.242,2.383-1.139,6.171c-0.435,1.906-1.046,4.152-1.825,6.669
		c-0.778,2.514-1.754,5.274-2.905,8.216c-2.304,5.879-5.432,12.387-9.27,18.971c-3.823,6.595-8.413,13.218-13.401,19.522
		c-4.96,6.32-10.334,12.312-15.85,17.546c-5.497,5.248-11.096,9.775-16.27,13.354c-2.591,1.786-5.046,3.362-7.307,4.689
		c-2.267,1.325-4.307,2.428-6.057,3.281c-3.474,1.725-5.731,2.496-5.731,2.496s0.222-2.396,1.088-6.202
		c0.421-1.917,1.013-4.175,1.771-6.704c0.761-2.526,1.717-5.303,2.847-8.259c2.267-5.91,5.35-12.455,9.151-19.068
		c3.784-6.63,8.333-13.291,13.291-19.624c5.032-6.271,10.46-12.222,16.027-17.417c5.555-5.207,11.193-9.704,16.401-13.254
		c2.604-1.778,5.074-3.339,7.348-4.657c2.273-1.316,4.324-2.41,6.08-3.256C553.475,297.305,555.737,296.542,555.737,296.542z"/>
</g>
<g>
	<circle fill="#FFFFFF" cx="471" cy="381.861" r="73.92"/>
	<g>
		<path fill="none" stroke="#FFFFFF" stroke-miterlimit="10" d="M462.087,308.473c-36.623,4.401-65.008,35.579-65.008,73.389
			c0,40.823,33.095,73.92,73.92,73.92c40.826,0,73.92-33.097,73.92-73.92c0-37.809-28.384-68.985-65.003-73.388"/>
		<g>
			<path fill="#FFFFFF" d="M471,307.941c-4.301-1.247-9.689-3.521-13.115-6.094l3.049,6.828l-2.024,7.196
				C461.924,312.83,466.925,309.799,471,307.941z"/>
		</g>
		<g>
			<path fill="#FFFFFF" d="M471,307.941c4.301-1.247,9.689-3.521,13.116-6.094l-3.05,6.828l2.023,7.196
				C480.076,312.83,475.074,309.799,471,307.941z"/>
		</g>
	</g>
</g>
<g>
	<ellipse cx="472.5" cy="378.75" rx="27.351" ry="27.721"/>
	<ellipse fill="none" stroke="#000000" stroke-miterlimit="10" cx="472.5" cy="378.75" rx="27.351" ry="27.721"/>
</g>
<g>
	<ellipse cx="471.75" cy="379" rx="1.108" ry="0"/>
	<ellipse fill="none" stroke="#000000" stroke-miterlimit="10" cx="471.75" cy="378.5" rx="1.108" ry="0"/>
</g>
<g>
	<path d="M472.15,330.648c-28.695,0-51.966,22.62-51.966,50.531s23.271,50.532,51.966,50.532c28.711,0,51.965-22.621,51.965-50.532
		S500.861,330.648,472.15,330.648z"/>
	<path fill="none" stroke="#000000" stroke-width="8" stroke-miterlimit="10" d="M472.15,330.648
		c-28.695,0-51.966,22.62-51.966,50.531s23.271,50.532,51.966,50.532c28.711,0,51.965-22.621,51.965-50.532
		S500.861,330.648,472.15,330.648z"/>
</g>
</svg>
